<?xml version="1.0" encoding="UTF-8"?><svg id="Layer_2" xmlns="http://www.w3.org/2000/svg" xmlns:xlink="http://www.w3.org/1999/xlink" viewBox="0 0 296.12 66.46"><defs><style>.cls-1{fill:url(#linear-gradient);}.cls-2{fill:#ffdd4e;}.cls-3{fill:url(#linear-gradient-3);}.cls-4{fill:url(#linear-gradient-4);}.cls-5{fill:url(#linear-gradient-2);}</style><linearGradient id="linear-gradient" x1="282.96" y1="43.24" x2="274.15" y2="48.32" gradientTransform="matrix(1, 0, 0, 1, 0, 0)" gradientUnits="userSpaceOnUse"><stop offset=".2" stop-color="#ffdd4e"/><stop offset="1" stop-color="#6000bf"/></linearGradient><linearGradient id="linear-gradient-2" x1="250.83" y1="19.52" x2="259.02" y2="24.25" xlink:href="#linear-gradient"/><linearGradient id="linear-gradient-3" x1="236.3" y1="43.24" x2="245.12" y2="48.33" xlink:href="#linear-gradient"/><linearGradient id="linear-gradient-4" x1="269.55" y1="39.44" x2="259.5" y2="33.64" gradientTransform="matrix(1, 0, 0, 1, 0, 0)" gradientUnits="userSpaceOnUse"><stop offset=".5" stop-color="#ffdd4e"/><stop offset=".97" stop-color="#6000bf"/></linearGradient></defs><g id="Layer_1-2"><g><g><path class="cls-2" d="M14.83,22.17l14.63,26.62h-6.01l-2.58-4.81H8.69l-2.57,4.81H0L14.83,22.17Zm3.55,17.17l-3.62-6.74-3.6,6.74h7.22Z"/><path class="cls-2" d="M32.34,23.27h5.61l-.03,20.43h12.92v5.09h-18.49V23.27Z"/><path class="cls-2" d="M56.24,28.37h-8.11l-.03-5.09h21.76v5.09h-8.1v20.43h-5.52V28.37Z"/><path class="cls-2" d="M73.94,23.27h20.14v5.09h-14.56v4.46l10.23,.03v4.93h-10.23v5.92h14.6v5.1h-20.17V23.27Z"/><path class="cls-2" d="M113.98,48.79l-9.79-10.68v10.68h-5.61V23.27h12.16c5.91,0,9.63,3,9.63,8.13s-3.02,7.6-8.54,7.79l9.6,9.61h-7.46Zm-9.79-14.25h7c2.12,0,3.47-1.05,3.47-3.14s-1.35-3.12-3.47-3.12h-7v6.26Z"/><path class="cls-2" d="M125.41,23.27h5.55l12.95,17.26V23.27h5.57v25.52h-5.49l-12.97-17.23v17.23h-5.61V23.27Z"/><path class="cls-2" d="M154.57,36.29v-13.02h5.61v13.02c0,4.84,1.9,7.65,6.49,7.65s6.49-2.8,6.49-7.61v-13.05h5.68v13.05c0,7.85-4.2,12.8-12.17,12.8s-12.1-4.92-12.1-12.84Z"/><path class="cls-2" d="M183.92,23.27h5.55l12.95,17.26V23.27h5.57v25.52h-5.49l-12.97-17.23v17.23h-5.61V23.27Z"/></g><g><path class="cls-2" d="M294.5,48.24l-.45-.77c-2.28-3.35-6.04-5.35-10.07-5.35h-13.41l-.39-.67-6.7-11.6,6.71-11.61c2.01-3.49,2.16-7.75,.4-11.39l-.12-.22-.32-.56c-1.99-3.45-5.57-5.71-9.57-6.03h-.06c-.06,0-.13-.01-.19-.02-.23-.01-.46-.02-.68-.02-.26,0-.49,0-.72,.02-.06,0-.13,0-.19,.01h-.06c-4,.33-7.58,2.59-9.57,6.04l-.44,.78c-1.76,3.65-1.61,7.91,.4,11.39l1.24,2.15,5.46,9.46-.23,.4-6.85,11.86h-13.41c-4.03,0-7.79,2-10.07,5.35l-.13,.21-.32,.56c-1.99,3.45-2.16,7.68-.44,11.3l.03,.05c.03,.06,.06,.12,.09,.19,.09,.18,.2,.38,.31,.58l.02,.04v.02c.12,.2,.24,.39,.37,.58,.02,.03,.06,.09,.1,.14l.03,.05c2.28,3.3,6.03,5.27,10.01,5.27h.89c4.04-.31,7.65-2.57,9.67-6.05l7.67-13.28h0l6.12-10.6,2.85,4.93,3.27,5.67h0l7.67,13.28c2.01,3.49,5.63,5.75,9.67,6.04h.89c3.98,0,7.73-1.96,10.01-5.26l.03-.05c.04-.06,.08-.12,.12-.18,.11-.16,.22-.35,.34-.55l.02-.04c.12-.21,.23-.41,.33-.61,.02-.03,.05-.1,.08-.16l.03-.05c1.72-3.63,1.55-7.85-.44-11.3Zm-54.43,8.83c-.89,1.54-2.48,2.55-4.27,2.72h-.51c-1.8,0-3.49-.89-4.52-2.39l-.06-.09c-.05-.08-.1-.17-.15-.25-.05-.09-.1-.18-.15-.27l-.06-.12c-.77-1.62-.7-3.53,.2-5.09l.25-.44c.51-.72,1.17-1.29,1.92-1.69,.78-.42,1.66-.65,2.57-.65h9.56l-4.78,8.28Zm14.79-42.17c-.26-.44-.44-.91-.56-1.4-.3-1.2-.2-2.49,.34-3.66l.25-.44c.9-1.55,2.52-2.57,4.33-2.72h.11c.18-.02,.34-.02,.6,0h.14c1.78,.16,3.4,1.17,4.3,2.73l.26,.44c.75,1.63,.67,3.52-.22,5.06l-4.78,8.28-4.78-8.28Zm34.06,41.79l-.05,.1c-.05,.09-.1,.18-.15,.27-.05,.08-.1,.17-.15,.25l-.08,.11c-1.02,1.48-2.71,2.37-4.51,2.37h-.51c-1.79-.17-3.38-1.18-4.27-2.72l-4.78-8.28h9.56c.91,0,1.78,.23,2.56,.64,.75,.4,1.41,.98,1.93,1.7l.26,.44c.9,1.55,.97,3.47,.19,5.11Z"/><g><path class="cls-1" d="M283.98,48.79c.91,0,1.78,.23,2.56,.64l-4.22-7.32h-11.75l3.85,6.67h9.56Z"/><path class="cls-5" d="M254.86,14.9c-.26-.44-.44-.91-.56-1.4l-3.98,6.89,5.46,9.46-.23,.4,4.09-7.08-4.78-8.28Z"/><path class="cls-3" d="M235.29,48.79h9.56l3.85-6.67h-11.75l-4.22,7.32c.78-.42,1.66-.65,2.57-.65Z"/><polygon class="cls-4" points="263.49 29.85 259.64 36.53 262.48 41.45 270.18 41.45 263.49 29.85"/></g></g></g></g></svg>